<?xml version="1.0" encoding="UTF-8"?>
<svg id="Layer_1" data-name="Layer 1" xmlns="http://www.w3.org/2000/svg" viewBox="0 0 137 137">
  <defs>
    <style>
      .cls-1 {
        fill: #0c0c22;
      }

      .cls-2 {
        fill: #fff8ee;
      }
    </style>
  </defs>
  <rect class="cls-1" y="0" width="137" height="137" rx="3.16" ry="3.16"/>
  <path class="cls-2" d="M10.6,94.12c0-10.41,9.36-24.12,37.56-24.12h.92c7.25-17.79,18.45-43.36,35.19-43.36,5.14,0,8.7.79,12.92,1.85l-5.93,41.51h12.52l-1.45,10.67h-12.52l-.79,5.14c-1.45,9.62,1.45,14.37,7.91,14.37,8.04,0,14.1-6.46,19.64-17l8.7,4.22c-6.19,12.52-16.47,23.59-30.84,23.46-12.12,0-20.95-8.04-18.19-25.04l.79-5.14h-19.24l-.26.53c-8.43,20.3-17.26,29.78-30.18,29.78-8.04,0-16.74-5.53-16.74-16.87ZM28.26,100.45c6.19,0,10.81-7.38,16.34-19.64-14.23.79-22.41,6.85-22.41,13.58,0,3.95,2.64,6.06,6.06,6.06ZM78.74,70.01l5.01-32.03h-.66c-6.59,0-14.37,16.34-20.95,32.03h16.61Z"/>
</svg>