<?xml version="1.0" encoding="UTF-8"?>
<svg id="Layer_1" data-name="Layer 1" xmlns="http://www.w3.org/2000/svg" viewBox="0 0 394.9 135.11">
  <defs>
    <style>
      .cls-1 {
        fill: #0c0c22;
      }

      .cls-2 {
        fill: #fff8ee;
      }
    </style>
  </defs>
  <rect class="cls-1" width="394.9" height="135.11" rx="5.8" ry="5.8"/>
  <g>
    <path class="cls-2" d="M9.38,94.14c0-10.94,9.83-25.34,39.46-25.34h.97c7.61-18.69,19.38-45.55,36.97-45.55,5.4,0,9.14.83,13.57,1.94l-6.23,43.61h13.15l-1.52,11.21h-13.15l-.83,5.4c-1.52,10.11,1.52,15.09,8.31,15.09,8.44,0,14.81-6.78,20.63-17.86l9.14,4.43c-6.51,13.15-17.31,24.78-32.4,24.64-12.74,0-22.01-8.45-19.11-26.31l.83-5.4h-20.21l-.28.55c-8.86,21.32-18.14,31.29-31.7,31.29-8.44,0-17.58-5.81-17.58-17.72ZM27.93,100.78c6.51,0,11.35-7.75,17.17-20.63-14.95.83-23.54,7.2-23.54,14.26,0,4.15,2.77,6.37,6.37,6.37ZM80.95,68.8l5.26-33.64h-.69c-6.92,0-15.09,17.17-22.01,33.64h17.44Z"/>
    <path class="cls-2" d="M119.85,87.08l3.46-21.18h-9.55l1.66-11.35h9.69l3.05-18.97h13.01l-3.05,18.97h17.03l-1.52,11.35h-17.44l-3.32,20.77c-1.66,9.41,1.66,13.84,9.55,13.84,7.2,0,15.78-6.37,21.32-17.86l9.14,4.43c-7.48,15.78-19.24,24.64-33.37,24.64-9,0-22.98-4.15-19.66-24.64Z"/>
    <path class="cls-2" d="M162.91,87.08l3.46-21.18h-9.55l1.66-11.35h9.69l3.05-18.97h13.01l-3.05,18.97h17.03l-1.52,11.35h-17.44l-3.32,20.77c-1.66,9.41,1.66,13.84,9.55,13.84,7.2,0,15.78-6.37,21.32-17.86l9.14,4.43c-7.48,15.78-19.24,24.64-33.37,24.64-9,0-22.98-4.15-19.66-24.64Z"/>
    <path class="cls-2" d="M234.07,53.16c11.91,0,18,7.48,18.14,15.23,0,9.83-9.55,20.49-32.12,23.54,2.91,5.81,9.28,9.14,17.86,9.14,9.97,0,20.08-5.12,26.58-18.41l9.14,4.43c-7.89,16.34-20.77,24.78-37.24,24.78-18.97,0-31.15-10.11-31.01-27.14,0-15.51,10.24-31.57,28.66-31.57ZM239.88,69.08c0-3.05-2.22-5.26-5.95-5.4-8.58,0-15.23,9.14-15.64,19.24,14.68-1.11,21.6-8.17,21.6-13.84Z"/>
    <path class="cls-2" d="M268.26,54.54h12.46l-1.8,12.74c5.4-7.2,14.12-13.98,24.23-14.12,10.52,0,16.61,6.78,16.75,16.34,0,8.03-4.02,17.44-4.02,23.95,0,4.71,2.91,7.06,7.2,7.06,5.81,0,12.18-5.95,18.28-17.86l9.14,4.43c-6.78,13.71-17.58,24.64-30.32,24.64-8.86,0-16.61-5.12-16.61-15.92,0-7.89,3.18-15.64,3.32-22.98,0-4.98-2.63-8.86-8.03-9-11.49,0-20.77,18-23.81,33.09l-.42,3.05-1.38,10.52h-13.01l8.03-55.93Z"/>
    <path class="cls-2" d="M340.53,87.08l3.32-21.18h-9.41l1.52-11.21h9.69l3.05-18.97h13.15l-3.05,18.97h17.03l-1.52,11.21h-17.44l-3.32,20.77c-1.52,9.14,1.66,14.4,8.31,14.4,5.81,0,10.94-5.12,15.78-12.04l7.89,6.09c-5.81,8.31-14.68,16.75-25.75,16.75-8.58,0-22.57-4.29-19.24-24.78Z"/>
  </g>
</svg>